<?xml version="1.0" encoding="utf-8"?>
<!-- Generator: Adobe Illustrator 23.0.3, SVG Export Plug-In . SVG Version: 6.00 Build 0)  -->
<svg version="1.1" id="Layer_1" xmlns="http://www.w3.org/2000/svg" xmlns:xlink="http://www.w3.org/1999/xlink" x="0px" y="0px"
	 viewBox="0 0 32 32" style="enable-background:new 0 0 32 32;" xml:space="preserve">
<style type="text/css">
	.st0{fill:#FFFFFF;}
</style>
<g transform="translate(576 192)">
	<path class="st0" d="M-544.88-165.12l-7.34-7.34c-1.09,1.7-2.54,3.15-4.24,4.24l7.34,7.34c1.17,1.17,3.07,1.17,4.24,0
		C-543.71-162.05-543.71-163.95-544.88-165.12z"/>
	<path class="st0" d="M-552-180c0-6.63-5.37-12-12-12s-12,5.37-12,12s5.37,12,12,12S-552-173.37-552-180z M-564-171
		c-4.96,0-9-4.04-9-9c0-4.96,4.04-9,9-9c4.96,0,9,4.04,9,9C-555-175.04-559.04-171-564-171z"/>
	<path class="st0" d="M-571-180h2c0-2.76,2.24-5,5-5v-2C-567.86-187-571-183.86-571-180z"/>
</g>
</svg>
